<svg width="64" height="64" viewBox="0 0 64 64" fill="none" xmlns="http://www.w3.org/2000/svg">
  <defs>
    <linearGradient id="cloudGradient" x1="10" y1="10" x2="54" y2="54" gradientUnits="userSpaceOnUse">
      <stop stop-color="#58A6FF"/>
      <stop offset="1" stop-color="#1F6FEB"/>
    </linearGradient>
    <linearGradient id="circuitGradient" x1="18" y1="22" x2="46" y2="46" gradientUnits="userSpaceOnUse">
      <stop stop-color="#79C0FF"/>
      <stop offset="1" stop-color="#1F6FEB"/>
    </linearGradient>
  </defs>
  <!-- Cloud shape -->
  <path
    d="M23 48C16.9249 48 12 43.0751 12 37C12 31.5119 15.9175 27.004 21.1523 26.1605C21.8356 21.0443 26.1605 17 31.5 17C35.9737 17 39.8624 19.6592 41.4498 23.7066C41.9387 23.6052 42.4522 23.5526 42.9762 23.5526C48.5033 23.5526 53 28.0493 53 33.5764C53 39.1034 48.5033 43.6001 42.9762 43.6001H23Z"
    fill="url(#cloudGradient)"/>
  <!-- Circuit lines -->
  <path d="M23 32H30" stroke="url(#circuitGradient)" stroke-width="2.2" stroke-linecap="round"/>
  <circle cx="20" cy="32" r="2.1" fill="#0D1117" stroke="#58A6FF" stroke-width="1.3"/>
  <path d="M34 28H40" stroke="url(#circuitGradient)" stroke-width="2.2" stroke-linecap="round"/>
  <circle cx="31" cy="28" r="2.1" fill="#0D1117" stroke="#58A6FF" stroke-width="1.3"/>
  <path d="M30 38H38" stroke="url(#circuitGradient)" stroke-width="2.2" stroke-linecap="round"/>
  <circle cx="27" cy="38" r="2.1" fill="#0D1117" stroke="#58A6FF" stroke-width="1.3"/>
</svg>
